<svg xmlns="http://www.w3.org/2000/svg" version="1.1" xmlns:xlink="http://www.w3.org/1999/xlink" xmlns:svgjs="http://svgjs.dev/svgjs" width="1500" height="1500" viewBox="0 0 1500 1500"><rect width="1500" height="1500" fill="#ffffff"></rect><g transform="matrix(0.6666666666666666,0,0,0.6666666666666666,249.39393939393938,438.5856950067477)"><svg viewBox="0 0 396 247" data-background-color="#000000" preserveAspectRatio="xMidYMid meet" height="935" width="1500" xmlns="http://www.w3.org/2000/svg" xmlns:xlink="http://www.w3.org/1999/xlink"><g id="tight-bounds" transform="matrix(1,0,0,1,0.2400000000000091,-0.09999999999999432)"><svg viewBox="0 0 395.52 247.2" height="247.2" width="395.52"><g><svg></svg></g><g><svg viewBox="0 0 395.52 247.2" height="247.2" width="395.52"><mask id="d9d9e938-df0b-49eb-8bff-d2e55c84c10f"><rect width="395.52" height="247.2" fill="white"></rect><g transform="matrix(1,0,0,1,2.842170943040401e-14,71.36875186362485)" id="clone"><svg viewBox="0 0 395.5199999999999 104.46249627275027" height="104.46249627275027" width="395.5199999999999"><g><svg viewBox="0 0 395.5199999999999 104.46249627275027" height="104.46249627275027" width="395.5199999999999"><g><svg viewBox="0 0 395.5199999999999 104.46249627275027" height="104.46249627275027" width="395.5199999999999"><g><svg viewBox="0 0 395.5199999999999 104.46249627275027" height="104.46249627275027" width="395.5199999999999"><g id="SvgjsG1522"><svg viewBox="0 0 395.5199999999999 104.46249627275027" height="104.46249627275027" width="395.5199999999999" id="SvgjsSvg1521"><g><svg viewBox="0 0 395.5199999999999 104.46249627275027" height="104.46249627275027" width="395.5199999999999"><g transform="matrix(1,0,0,1,0,0)"><svg width="395.5199999999999" viewBox="-1.49 -43.16 174.57000000000002 46.839999999999996" height="104.46249627275027" data-palette-color="#ffffff"><path d="M7.76-3.1Q7.67-2.95 7.58-2.83 7.5-2.71 7.5-2.53 7.5-2.34 7.64-2.34L7.64-2.34 17.04-2.34Q18.58-2.34 19.73-4.27L19.73-4.27Q20.53-5.62 20.81-5.91 21.09-6.2 21.42-6.2 21.75-6.2 21.75-5.91L21.75-5.91 19.95-1.12Q19.9-1.03 19.76-0.51 19.63 0 19.26 0L19.26 0 2.05 0Q1.51 0 1.51-0.49L1.51-0.49Q1.51-0.83 1.66-1.1L1.66-1.1 13.94-17.94Q14.18-18.29 14.37-18.53 14.55-18.77 14.59-19.07 14.62-19.36 11.35-19.36L11.35-19.36 6.35-19.36Q4.37-19.36 3.54-16.89L3.54-16.89Q3.32-16.24 3.04-15.32 2.76-14.4 2.34-14.4L2.34-14.4Q2.1-14.4 2.1-14.5L2.1-14.5 3.49-22.66Q3.56-22.95 3.89-22.95 4.22-22.95 4.52-22.45 4.81-21.95 5.22-21.9L5.22-21.9Q7.06-21.66 10.23-21.66 13.4-21.66 20.51-21.8L20.51-21.8Q20.75-21.73 20.75-21.2 20.75-20.68 20.36-20.36L20.36-20.36 7.76-3.1ZM24.17-10.97Q24.17-15.77 27.57-19.23 30.98-22.68 35.74-22.68 40.5-22.68 44.02-19.32 47.53-15.97 47.53-11.04 47.53-6.1 44.2-2.72 40.87 0.66 35.84 0.66 30.81 0.66 27.49-2.76 24.17-6.18 24.17-10.97ZM30.25-4.69L30.25-4.69Q32.64-0.66 36.77-0.66L36.77-0.66Q39.96-0.66 41.66-3.22 43.36-5.79 43.36-9.52 43.36-13.26 40.98-17.19 38.6-21.12 34.57-21.12L34.57-21.12Q31.61-21.12 29.92-18.57 28.22-16.02 28.22-12.1 28.22-8.18 30.25-4.69ZM51.19-10.97Q51.19-15.77 54.6-19.23 58-22.68 62.76-22.68 67.52-22.68 71.04-19.32 74.56-15.97 74.56-11.04 74.56-6.1 71.22-2.72 67.89 0.66 62.86 0.66 57.83 0.66 54.51-2.76 51.19-6.18 51.19-10.97ZM57.27-4.69L57.27-4.69Q59.66-0.66 63.79-0.66L63.79-0.66Q66.99-0.66 68.68-3.22 70.38-5.79 70.38-9.52 70.38-13.26 68-17.19 65.62-21.12 61.59-21.12L61.59-21.12Q58.64-21.12 56.94-18.57 55.24-16.02 55.24-12.1 55.24-8.18 57.27-4.69ZM87.1-0.93L87.1-0.93Q88.25-0.78 88.25-0.34L88.25-0.34Q88.25-0.05 88.01 0L88.01 0 77.12 0Q76.87-0.05 76.87-0.34L76.87-0.34Q76.87-0.78 78.02-0.93L78.02-0.93Q80.66-1.32 80.66-3.71L80.66-3.71 80.66-34.16Q80.66-35.18 79.53-35.57L79.53-35.57Q79.05-35.74 78.48-35.85 77.92-35.96 77.59-36.06 77.26-36.16 77.18-36.24 77.09-36.33 77.09-36.61 77.09-36.89 77.46-37.08L77.46-37.08 83.68-40.01Q83.98-40.16 84.05-40.16L84.05-40.16Q84.47-40.16 84.47-39.58L84.47-39.58 84.47-3.71Q84.47-1.32 87.1-0.93ZM90.93-10.97Q90.93-15.77 94.34-19.23 97.74-22.68 102.5-22.68 107.27-22.68 110.78-19.32 114.3-15.97 114.3-11.04 114.3-6.1 110.96-2.72 107.63 0.66 102.6 0.66 97.57 0.66 94.25-2.76 90.93-6.18 90.93-10.97ZM97.01-4.69L97.01-4.69Q99.4-0.66 103.53-0.66L103.53-0.66Q106.73-0.66 108.43-3.22 110.12-5.79 110.12-9.52 110.12-13.26 107.74-17.19 105.36-21.12 101.33-21.12L101.33-21.12Q98.38-21.12 96.68-18.57 94.99-16.02 94.99-12.1 94.99-8.18 97.01-4.69ZM134.53 0.05L134.53-2.15Q134.41-2.56 134.22-2.43 134.02-2.29 132.63-1.59L132.63-1.59Q128.06 0.68 125.01 0.68 121.96 0.68 120.62-1.27L120.62-1.27Q120.13-2 120.13-3.08L120.13-3.08 120.13-17.97Q120.06-18.68 119.49-19.19L119.49-19.19Q118.74-19.82 117.92-19.87 117.1-19.92 117.1-20.37 117.1-20.83 117.49-20.92L117.49-20.92 123.08-22.53Q123.38-22.63 123.66-22.63 123.94-22.63 123.94-22.22L123.94-22.22 123.94-5.83Q123.94-4.13 125.45-3.2 126.97-2.27 129.32-2.27 131.68-2.27 133.56-3.71L133.56-3.71Q134.14-4.17 134.53-4.74L134.53-4.74 134.53-17.97Q134.46-18.68 133.9-19.19L133.9-19.19Q133.14-19.82 132.32-19.87 131.51-19.92 131.51-20.37 131.51-20.83 131.9-20.92L131.9-20.92 137.49-22.53Q137.78-22.63 138.06-22.63 138.34-22.63 138.34-22.14L138.34-22.14 138.34-4.81Q138.46-3.74 138.95-3.27 139.44-2.81 140.54-2.81L140.54-2.81 141.96-2.91Q142.1-2.91 142.1-2.62 142.1-2.34 141.74-2.17L141.74-2.17 135.24 0.51Q134.95 0.66 134.74 0.66 134.53 0.66 134.53 0.05L134.53 0.05ZM152.55-11.69L152.52-11.69Q152.23-11.69 152.23-10.5L152.23-10.5 152.23-3.71Q152.23-1.32 154.87-0.93L154.87-0.93Q156.02-0.78 156.02-0.39 156.02 0 155.77 0L155.77 0 144.88 0Q144.64-0.05 144.64-0.34L144.64-0.34Q144.64-0.78 145.79-0.93L145.79-0.93Q148.42-1.32 148.42-3.71L148.42-3.71 148.42-34.16Q148.42-35.18 147.3-35.57L147.3-35.57Q146.81-35.74 146.25-35.85 145.69-35.96 145.36-36.06 145.03-36.16 144.94-36.24 144.86-36.33 144.86-36.61 144.86-36.89 145.22-37.08L145.22-37.08 151.45-40.01Q151.74-40.16 151.82-40.16L151.82-40.16Q152.23-40.16 152.23-39.58L152.23-39.58 152.23-15.21Q152.43-14.5 152.74-14.38 153.06-14.26 153.43-14.26L153.43-14.26Q154.14-14.26 155.76-15.37 157.38-16.48 158.7-17.86 160.02-19.24 160.02-19.76 160.02-20.29 159.56-20.42 159.09-20.56 158.52-20.62 157.94-20.68 157.48-20.81 157.02-20.95 157.02-21.46 157.02-21.97 158.02-21.97L158.02-21.97 167.32-21.97Q168.17-21.97 168.17-21.41L168.17-21.41Q168.17-21.12 167.61-20.95 167.05-20.78 165.44-20.42 163.83-20.07 162.88-19.31L162.88-19.31 155.87-13.84Q155.87-13.53 156.33-13.06L156.33-13.06 166.37-2.49Q167.34-1.49 168.37-1.18 169.39-0.88 169.74-0.78 170.08-0.68 170.08-0.44L170.08-0.44Q170.08 0 169.69 0L169.69 0 158.97 0Q158.73 0 158.73-0.29L158.73-0.29Q158.73-0.73 159.34-0.85L159.34-0.85Q161.17-1.2 161.17-2.1L161.17-2.1Q161.17-2.37 160.8-2.81 160.43-3.25 160.12-3.66L160.12-3.66 152.57-11.65Q152.57-11.67 152.55-11.69L152.55-11.69Z" opacity="1" transform="matrix(1,0,0,1,0,0)" fill="black" class="wordmark-text-0" id="SvgjsPath1520" stroke-width="5" stroke="black" stroke-linejoin="round"></path></svg></g></svg></g></svg></g></svg></g></svg></g></svg></g></svg></g></mask><g mask="url(#d9d9e938-df0b-49eb-8bff-d2e55c84c10f)"><g><path d="M301.814 247.186h-213.709c-2.106 0-3.16-1.987-3.16-5.96 0-3.974 0.934-7.014 2.801-9.12v0l163.944-211.985c0.479-0.574 0.718-1.293 0.718-2.155 0-0.862-1.173-1.293-3.519-1.292v0h-106.423c-9.718 0-17.618 3.327-23.698 9.982v0c-2.106 2.202-3.662 4.74-4.667 7.611-0.957 2.872-2.106 7.756-3.447 14.65-1.34 6.894-2.25 10.604-2.729 11.131-0.479 0.527-1.556 0.79-3.232 0.789-1.723 0-2.825-0.359-3.303-1.077v0l2.657-53.786c0-3.974 1.34-5.96 4.021-5.96v0h190.442c1.867 0 2.801 1.867 2.801 5.601 0 3.734-0.766 6.702-2.298 8.905v0l-157.624 203.942c-0.335 0.574-1.005 1.556-2.011 2.944-1.005 1.388-1.508 2.561-1.508 3.519v0c0 3.16 2.705 4.74 8.114 4.739v0h123.587c5.601 0 11.274-2.37 17.019-7.109 5.697-4.74 9.814-11.083 12.351-19.03 2.489-7.947 4.213-17.522 5.171-28.724v0c0.335-1.771 1.508-2.657 3.518-2.657 1.963 0 2.944 0.694 2.945 2.083v0 8.258l-3.663 54.361c-0.144 1.293-0.215 2.513-0.215 3.662v0c0 4.452-1.628 6.678-4.883 6.678z" fill="#000000" fill-rule="nonzero" stroke="none" stroke-width="1" stroke-linecap="butt" stroke-linejoin="miter" stroke-miterlimit="10" stroke-dasharray="" stroke-dashoffset="0" font-family="none" font-weight="none" font-size="none" text-anchor="none" style="mix-blend-mode: normal" data-fill-palette-color="tertiary"></path></g></g><g transform="matrix(1,0,0,1,2.842170943040401e-14,71.36875186362485)"><svg viewBox="0 0 395.5199999999999 104.46249627275027" height="104.46249627275027" width="395.5199999999999"><g><svg viewBox="0 0 395.5199999999999 104.46249627275027" height="104.46249627275027" width="395.5199999999999"><g><svg viewBox="0 0 395.5199999999999 104.46249627275027" height="104.46249627275027" width="395.5199999999999"><g><svg viewBox="0 0 395.5199999999999 104.46249627275027" height="104.46249627275027" width="395.5199999999999"><g id="textblocktransform"><svg viewBox="0 0 395.5199999999999 104.46249627275027" height="104.46249627275027" width="395.5199999999999" id="textblock"><g><svg viewBox="0 0 395.5199999999999 104.46249627275027" height="104.46249627275027" width="395.5199999999999"><g transform="matrix(1,0,0,1,0,0)"><svg width="395.5199999999999" viewBox="-1.49 -43.16 174.57000000000002 46.839999999999996" height="104.46249627275027" data-palette-color="#ffffff"><path d="M7.76-3.1Q7.67-2.95 7.58-2.83 7.5-2.71 7.5-2.53 7.5-2.34 7.64-2.34L7.64-2.34 17.04-2.34Q18.58-2.34 19.73-4.27L19.73-4.27Q20.53-5.62 20.81-5.91 21.09-6.2 21.42-6.2 21.75-6.2 21.75-5.91L21.75-5.91 19.95-1.12Q19.9-1.03 19.76-0.51 19.63 0 19.26 0L19.26 0 2.05 0Q1.51 0 1.51-0.49L1.51-0.49Q1.51-0.83 1.66-1.1L1.66-1.1 13.94-17.94Q14.18-18.29 14.37-18.53 14.55-18.77 14.59-19.07 14.62-19.36 11.35-19.36L11.35-19.36 6.35-19.36Q4.37-19.36 3.54-16.89L3.54-16.89Q3.32-16.24 3.04-15.32 2.76-14.4 2.34-14.4L2.34-14.4Q2.1-14.4 2.1-14.5L2.1-14.5 3.49-22.66Q3.56-22.95 3.89-22.95 4.22-22.95 4.52-22.45 4.81-21.95 5.22-21.9L5.22-21.9Q7.06-21.66 10.23-21.66 13.4-21.66 20.51-21.8L20.51-21.8Q20.75-21.73 20.75-21.2 20.75-20.68 20.36-20.36L20.36-20.36 7.76-3.1ZM24.17-10.97Q24.17-15.77 27.57-19.23 30.98-22.68 35.74-22.68 40.5-22.68 44.02-19.32 47.53-15.97 47.53-11.04 47.53-6.1 44.2-2.72 40.87 0.66 35.84 0.66 30.81 0.66 27.49-2.76 24.17-6.18 24.17-10.97ZM30.25-4.69L30.25-4.69Q32.64-0.66 36.77-0.66L36.77-0.66Q39.96-0.66 41.66-3.22 43.36-5.79 43.36-9.52 43.36-13.26 40.98-17.19 38.6-21.12 34.57-21.12L34.57-21.12Q31.61-21.12 29.92-18.57 28.22-16.02 28.22-12.1 28.22-8.18 30.25-4.69ZM51.19-10.97Q51.19-15.77 54.6-19.23 58-22.68 62.76-22.68 67.52-22.68 71.04-19.32 74.56-15.97 74.56-11.04 74.56-6.1 71.22-2.72 67.89 0.66 62.86 0.66 57.83 0.66 54.51-2.76 51.19-6.18 51.19-10.97ZM57.27-4.69L57.27-4.69Q59.66-0.66 63.79-0.66L63.79-0.66Q66.99-0.66 68.68-3.22 70.38-5.79 70.38-9.52 70.38-13.26 68-17.19 65.62-21.12 61.59-21.12L61.59-21.12Q58.64-21.12 56.94-18.57 55.24-16.02 55.24-12.1 55.24-8.18 57.27-4.69ZM87.1-0.93L87.1-0.93Q88.25-0.78 88.25-0.34L88.25-0.34Q88.25-0.05 88.01 0L88.01 0 77.12 0Q76.87-0.05 76.87-0.34L76.87-0.34Q76.87-0.78 78.02-0.93L78.02-0.93Q80.66-1.32 80.66-3.71L80.66-3.71 80.66-34.16Q80.66-35.18 79.53-35.57L79.53-35.57Q79.05-35.74 78.48-35.85 77.92-35.96 77.59-36.06 77.26-36.16 77.18-36.24 77.09-36.33 77.09-36.61 77.09-36.89 77.46-37.08L77.46-37.08 83.68-40.01Q83.98-40.16 84.05-40.16L84.05-40.16Q84.47-40.16 84.47-39.58L84.47-39.58 84.47-3.71Q84.47-1.32 87.1-0.93ZM90.93-10.97Q90.93-15.77 94.34-19.23 97.74-22.68 102.5-22.68 107.27-22.68 110.78-19.32 114.3-15.97 114.3-11.04 114.3-6.1 110.96-2.72 107.63 0.66 102.6 0.66 97.57 0.66 94.25-2.76 90.93-6.18 90.93-10.97ZM97.01-4.69L97.01-4.69Q99.4-0.66 103.53-0.66L103.53-0.66Q106.73-0.66 108.43-3.22 110.12-5.79 110.12-9.52 110.12-13.26 107.74-17.19 105.36-21.12 101.33-21.12L101.33-21.12Q98.38-21.12 96.68-18.57 94.99-16.02 94.99-12.1 94.99-8.18 97.01-4.69ZM134.53 0.05L134.53-2.15Q134.41-2.56 134.22-2.43 134.02-2.29 132.63-1.59L132.63-1.59Q128.06 0.68 125.01 0.68 121.96 0.68 120.62-1.27L120.62-1.27Q120.13-2 120.13-3.08L120.13-3.08 120.13-17.97Q120.06-18.68 119.49-19.19L119.49-19.19Q118.74-19.82 117.92-19.87 117.1-19.92 117.1-20.37 117.1-20.83 117.49-20.92L117.49-20.92 123.08-22.53Q123.38-22.63 123.66-22.63 123.94-22.63 123.94-22.22L123.94-22.22 123.94-5.83Q123.94-4.13 125.45-3.2 126.97-2.27 129.32-2.27 131.68-2.27 133.56-3.71L133.56-3.71Q134.14-4.17 134.53-4.74L134.53-4.74 134.53-17.97Q134.46-18.68 133.9-19.19L133.9-19.19Q133.14-19.82 132.32-19.87 131.51-19.92 131.51-20.37 131.51-20.83 131.9-20.92L131.9-20.92 137.49-22.53Q137.78-22.63 138.06-22.63 138.34-22.63 138.34-22.14L138.34-22.14 138.34-4.81Q138.46-3.74 138.95-3.27 139.44-2.81 140.54-2.81L140.54-2.81 141.96-2.91Q142.1-2.91 142.1-2.62 142.1-2.34 141.74-2.17L141.74-2.17 135.24 0.51Q134.95 0.66 134.74 0.66 134.53 0.66 134.53 0.05L134.53 0.05ZM152.55-11.69L152.52-11.69Q152.23-11.69 152.23-10.5L152.23-10.5 152.23-3.71Q152.23-1.32 154.87-0.93L154.87-0.93Q156.02-0.78 156.02-0.39 156.02 0 155.77 0L155.77 0 144.88 0Q144.64-0.05 144.64-0.34L144.64-0.34Q144.64-0.78 145.79-0.93L145.79-0.93Q148.42-1.32 148.42-3.71L148.42-3.71 148.42-34.16Q148.42-35.18 147.3-35.57L147.3-35.57Q146.81-35.74 146.25-35.85 145.69-35.96 145.36-36.06 145.03-36.16 144.94-36.24 144.86-36.33 144.86-36.61 144.86-36.89 145.22-37.08L145.22-37.08 151.45-40.01Q151.74-40.16 151.82-40.16L151.82-40.16Q152.23-40.16 152.23-39.58L152.23-39.58 152.23-15.21Q152.43-14.5 152.74-14.38 153.06-14.26 153.43-14.26L153.43-14.26Q154.14-14.26 155.76-15.37 157.38-16.48 158.7-17.86 160.02-19.24 160.02-19.76 160.02-20.29 159.56-20.42 159.09-20.56 158.52-20.62 157.94-20.68 157.48-20.81 157.02-20.95 157.02-21.46 157.02-21.97 158.02-21.97L158.02-21.97 167.32-21.97Q168.17-21.97 168.17-21.41L168.17-21.41Q168.17-21.12 167.61-20.95 167.05-20.78 165.44-20.42 163.83-20.07 162.88-19.31L162.88-19.31 155.87-13.84Q155.87-13.53 156.33-13.06L156.33-13.06 166.37-2.49Q167.34-1.49 168.37-1.18 169.39-0.88 169.74-0.78 170.08-0.68 170.08-0.44L170.08-0.44Q170.08 0 169.69 0L169.69 0 158.97 0Q158.73 0 158.73-0.29L158.73-0.29Q158.73-0.73 159.34-0.85L159.34-0.85Q161.17-1.2 161.17-2.1L161.17-2.1Q161.17-2.37 160.8-2.81 160.43-3.25 160.12-3.66L160.12-3.66 152.57-11.65Q152.57-11.67 152.55-11.69L152.55-11.69Z" opacity="1" transform="matrix(1,0,0,1,0,0)" fill="#000000" class="wordmark-text-0" data-fill-palette-color="primary" id="text-0"></path></svg></g></svg></g></svg></g></svg></g></svg></g></svg></g></svg></g></svg></g><defs></defs></svg><rect width="395.52" height="247.2" fill="none" stroke="none" visibility="hidden"></rect></g></svg></g></svg>